# xmcd
#
# Track frame offsets:
# 150
# 2289
# 21316
# 40126
# 48238
# 65905
# 87657
# 108895
# 119322
# 143068
# 160077
# 179691
#
# Disc length: 2430 seconds
#
#
# Revision: 0
# Processed by: cddbd v1.5.1PL2 Copyright (c) Steve Scherf et al.
# Submitted via: FreeRIP 2.944 
#
DISCID=9c097c0c
DTITLE=Jedi Knights Circle - Space Explorers
DYEAR=1997
DGENRE=hip hop
TTITLE0=Space Explorers Intro
TTITLE1=Forbidden Planet
TTITLE2=Space Cadets
TTITLE3=Prism Intro
TTITLE4=Prism
TTITLE5=Exploring
TTITLE6=Outer Space War
TTITLE7=Radiation
TTITLE8=U.F.O's
TTITLE9=Evolution
TTITLE10=Mutual Thoughts
TTITLE11=Space Explorers outro
EXTD=
EXTT0=
EXTT1=
EXTT2=
EXTT3=
EXTT4=
EXTT5=
EXTT6=
EXTT7=
EXTT8=
EXTT9=
EXTT10=
EXTT11=
PLAYORDER=
